<svg width="500" height="300" xmlns="http://www.w3.org/2000/svg">
  <defs>
    <linearGradient id="exitmate-grad" x1="0%" y1="0%" x2="100%" y2="100%">
      <stop offset="0%" style="stop-color:#4F46E5;stop-opacity:1" />
      <stop offset="100%" style="stop-color:#7C3AED;stop-opacity:1" />
    </linearGradient>
  </defs>

  <!-- Background -->
  <rect width="500" height="300" fill="url(#exitmate-grad)"/>

  <!-- Grid pattern -->
  <g opacity="0.1">
    <line x1="0" y1="75" x2="500" y2="75" stroke="white" stroke-width="1"/>
    <line x1="0" y1="150" x2="500" y2="150" stroke="white" stroke-width="1"/>
    <line x1="0" y1="225" x2="500" y2="225" stroke="white" stroke-width="1"/>
    <line x1="125" y1="0" x2="125" y2="300" stroke="white" stroke-width="1"/>
    <line x1="250" y1="0" x2="250" y2="300" stroke="white" stroke-width="1"/>
    <line x1="375" y1="0" x2="375" y2="300" stroke="white" stroke-width="1"/>
  </g>

  <!-- Document icon -->
  <g transform="translate(200, 80)">
    <rect x="0" y="0" width="100" height="140" rx="8" fill="white" opacity="0.9"/>
    <rect x="15" y="20" width="70" height="8" rx="4" fill="#4F46E5" opacity="0.3"/>
    <rect x="15" y="40" width="50" height="8" rx="4" fill="#4F46E5" opacity="0.3"/>
    <rect x="15" y="60" width="70" height="8" rx="4" fill="#4F46E5" opacity="0.3"/>
    <rect x="15" y="80" width="60" height="8" rx="4" fill="#4F46E5" opacity="0.3"/>
    <rect x="15" y="100" width="70" height="8" rx="4" fill="#4F46E5" opacity="0.3"/>

    <!-- Check mark -->
    <circle cx="80" cy="120" r="12" fill="#10B981"/>
    <path d="M 75 120 L 78 123 L 85 116" stroke="white" stroke-width="2" fill="none" stroke-linecap="round"/>
  </g>
</svg>
